<svg width="377" height="394" viewBox="0 0 377 394" fill="none" xmlns="http://www.w3.org/2000/svg">
<path d="M315.984 315.08C315.984 310.949 317.259 307.478 319.808 304.665C322.444 301.765 326.224 300.314 331.146 300.314C336.067 300.314 339.803 301.765 342.352 304.665C344.988 307.478 346.307 310.949 346.307 315.08C346.307 319.123 344.988 322.551 342.352 325.363C339.803 328.176 336.067 329.582 331.146 329.582C326.224 329.582 322.444 328.176 319.808 325.363C317.259 322.551 315.984 319.123 315.984 315.08Z" fill="#A2A0FB"/>
<path d="M216.4 81.36C200.32 81.36 185.32 85.44 171.4 93.6C157.72 101.52 146.8 112.44 138.64 126.36C130.48 140.04 126.4 155.04 126.4 171.36V218.88C126.4 235.92 128.8 249.96 133.6 261C140.32 276.6 150.52 289.32 164.2 299.16C177.88 309 193.24 314.52 210.28 315.72V198.72H320.08V222.48C320.08 237.84 317.8 251.52 313.24 263.52C305.8 283.44 293.32 299.4 275.8 311.4C258.28 323.4 238.48 329.4 216.4 329.4C195.52 329.4 176.44 323.76 159.16 312.48C142.12 300.96 129.64 285.72 121.72 266.76C115.96 253.32 113.08 237.36 113.08 218.88V171.36C113.08 152.64 117.64 135.36 126.76 119.52C136.12 103.68 148.72 91.2 164.56 82.08C180.4 72.72 197.68 68.04 216.4 68.04C232 68.04 246.28 70.68 259.24 75.96C272.2 81 283.24 88.44 292.36 98.28C299.8 106.44 305.8 115.56 310.36 125.64C315.16 135.72 317.56 145.92 317.56 156.24H304.6C304.36 147.36 302.08 138.6 297.76 129.96C293.68 121.32 288.4 113.52 281.92 106.56C265.84 89.76 244 81.36 216.4 81.36ZM306.76 211.68H223.24V315.72C240.52 314.52 256 309.12 269.68 299.52C283.6 289.68 293.8 276.72 300.28 260.64C304.6 249.36 306.76 236.64 306.76 222.48V211.68Z" fill="#F8F8F8"/>
<path d="M236.88 324H44.28V73.44H141.84C162.72 73.44 179.76 77.16 192.96 84.6C205.92 91.8 216 101.64 223.2 114.12C230.4 126.6 234 140.4 234 155.52C234 174.24 228.24 191.04 216.72 205.92C205.2 220.56 190.68 230.28 173.16 235.08L236.88 324ZM66.96 86.76L164.88 223.56C180.96 220.2 194.28 212.16 204.84 199.44C215.4 186.72 220.68 172.08 220.68 155.52C220.68 142.32 217.44 130.32 210.96 119.52C204.48 108.72 195.36 100.44 183.6 94.68C173.04 89.4 159.24 86.76 142.2 86.76H66.96ZM57.6 95.4V224.64H150.12L57.6 95.4ZM57.6 310.68H211.68L159.12 237.6L147.96 237.96H57.6V310.68Z" fill="#F8F8F8"/>
</svg>
